<svg width="16" height="16" viewBox="0 0 16 16" fill="none" xmlns="http://www.w3.org/2000/svg">
<path d="M10.6673 13.3333V2.66668C10.6673 2.31305 10.5268 1.97392 10.2768 1.72387C10.0267 1.47382 9.68761 1.33334 9.33398 1.33334H6.66732C6.3137 1.33334 5.97456 1.47382 5.72451 1.72387C5.47446 1.97392 5.33398 2.31305 5.33398 2.66668V13.3333" stroke="url(#paint0_linear_467_2108)" stroke-width="1.33333" stroke-linecap="round" stroke-linejoin="round"/>
<path d="M13.334 4H2.66732C1.93094 4 1.33398 4.59695 1.33398 5.33333V12C1.33398 12.7364 1.93094 13.3333 2.66732 13.3333H13.334C14.0704 13.3333 14.6673 12.7364 14.6673 12V5.33333C14.6673 4.59695 14.0704 4 13.334 4Z" stroke="url(#paint1_linear_467_2108)" stroke-width="1.33333" stroke-linecap="round" stroke-linejoin="round"/>
<defs>
<linearGradient id="paint0_linear_467_2108" x1="5.33398" y1="7.33334" x2="10.6673" y2="7.33334" gradientUnits="userSpaceOnUse">
<stop stop-color="#56BEEC"/>
<stop offset="1" stop-color="#51ECBA"/>
</linearGradient>
<linearGradient id="paint1_linear_467_2108" x1="1.33398" y1="8.66667" x2="14.6673" y2="8.66667" gradientUnits="userSpaceOnUse">
<stop stop-color="#56BEEC"/>
<stop offset="1" stop-color="#51ECBA"/>
</linearGradient>
</defs>
</svg>
