<svg width="16" height="16" viewBox="0 0 16 16" fill="none" xmlns="http://www.w3.org/2000/svg">
<g clip-path="url(#clip0_467_2096)">
<path d="M8.00065 14.6667C11.6825 14.6667 14.6673 11.6819 14.6673 8.00001C14.6673 4.31811 11.6825 1.33334 8.00065 1.33334C4.31875 1.33334 1.33398 4.31811 1.33398 8.00001C1.33398 11.6819 4.31875 14.6667 8.00065 14.6667Z" stroke="url(#paint0_linear_467_2096)" stroke-width="1.33333" stroke-linecap="round" stroke-linejoin="round"/>
<path d="M5.33398 8.00001C5.33398 5.51784 6.28881 3.13078 8.00065 1.33334C9.71249 3.13078 10.6673 5.51784 10.6673 8.00001C10.6673 10.4822 9.71249 12.8692 8.00065 14.6667C6.28881 12.8692 5.33398 10.4822 5.33398 8.00001Z" stroke="url(#paint1_linear_467_2096)" stroke-width="1.33333" stroke-linecap="round" stroke-linejoin="round"/>
<path d="M1.33398 8H14.6673" stroke="url(#paint2_linear_467_2096)" stroke-width="1.33333" stroke-linecap="round" stroke-linejoin="round"/>
</g>
<defs>
<linearGradient id="paint0_linear_467_2096" x1="1.33398" y1="8.00001" x2="14.6673" y2="8.00001" gradientUnits="userSpaceOnUse">
<stop stop-color="#56BEEC"/>
<stop offset="1" stop-color="#51ECBA"/>
</linearGradient>
<linearGradient id="paint1_linear_467_2096" x1="5.33398" y1="8.00001" x2="10.6673" y2="8.00001" gradientUnits="userSpaceOnUse">
<stop stop-color="#56BEEC"/>
<stop offset="1" stop-color="#51ECBA"/>
</linearGradient>
<linearGradient id="paint2_linear_467_2096" x1="1.33398" y1="8.5" x2="14.6673" y2="8.5" gradientUnits="userSpaceOnUse">
<stop stop-color="#56BEEC"/>
<stop offset="1" stop-color="#51ECBA"/>
</linearGradient>
<clipPath id="clip0_467_2096">
<rect width="16" height="16" fill="white"/>
</clipPath>
</defs>
</svg>
