<svg width="14" height="15" viewBox="0 0 14 15" fill="none" xmlns="http://www.w3.org/2000/svg">
<path d="M1.33496 8.66842C1.2088 8.66885 1.08511 8.63348 0.978258 8.56641C0.871406 8.49934 0.785778 8.40333 0.731322 8.28953C0.676866 8.17573 0.655818 8.04881 0.670622 7.92353C0.685426 7.79824 0.735476 7.67973 0.814956 7.58176L7.41496 0.781757C7.46446 0.724611 7.53193 0.685994 7.60628 0.672245C7.68063 0.658496 7.75744 0.670432 7.82411 0.706093C7.89078 0.741754 7.94335 0.799021 7.97318 0.868495C8.00301 0.937969 8.00834 1.01552 7.98829 1.08842L6.70829 5.10176C6.67055 5.20277 6.65787 5.31144 6.67135 5.41843C6.68483 5.52542 6.72406 5.62754 6.78568 5.71604C6.8473 5.80454 6.92947 5.87677 7.02514 5.92653C7.12081 5.97629 7.22712 6.00211 7.33496 6.00176H12.0016C12.1278 6.00133 12.2515 6.0367 12.3583 6.10377C12.4652 6.17084 12.5508 6.26685 12.6053 6.38065C12.6597 6.49445 12.6808 6.62137 12.666 6.74665C12.6512 6.87194 12.6011 6.99045 12.5216 7.08842L5.92162 13.8884C5.87211 13.9456 5.80465 13.9842 5.7303 13.9979C5.65595 14.0117 5.57914 13.9997 5.51247 13.9641C5.4458 13.9284 5.39323 13.8712 5.3634 13.8017C5.33357 13.7322 5.32824 13.6547 5.34829 13.5818L6.62829 9.56842C6.66603 9.46741 6.67871 9.35874 6.66523 9.25175C6.65175 9.14476 6.61252 9.04264 6.5509 8.95414C6.48928 8.86564 6.40711 8.79341 6.31144 8.74365C6.21577 8.69389 6.10946 8.66807 6.00162 8.66842H1.33496Z" stroke="url(#paint0_linear_467_2130)" stroke-width="1.33333" stroke-linecap="round" stroke-linejoin="round"/>
<defs>
<linearGradient id="paint0_linear_467_2130" x1="0.666016" y1="7.33509" x2="12.6706" y2="7.33509" gradientUnits="userSpaceOnUse">
<stop stop-color="#56BEEC"/>
<stop offset="1" stop-color="#51ECBA"/>
</linearGradient>
</defs>
</svg>
