<svg width="14" height="14" viewBox="0 0 14 14" fill="none" xmlns="http://www.w3.org/2000/svg">
<path d="M0.666016 8.00001H2.66602C3.01964 8.00001 3.35878 8.14048 3.60882 8.39053C3.85887 8.64058 3.99935 8.97972 3.99935 9.33334V11.3333C3.99935 11.687 3.85887 12.0261 3.60882 12.2761C3.35878 12.5262 3.01964 12.6667 2.66602 12.6667H1.99935C1.64573 12.6667 1.30659 12.5262 1.05654 12.2761C0.806491 12.0261 0.666016 11.687 0.666016 11.3333V6.66667C0.666016 5.07537 1.29816 3.54925 2.42337 2.42403C3.54859 1.29881 5.07472 0.666672 6.66602 0.666672C8.25731 0.666672 9.78344 1.29881 10.9087 2.42403C12.0339 3.54925 12.666 5.07537 12.666 6.66667V11.3333C12.666 11.687 12.5255 12.0261 12.2755 12.2761C12.0254 12.5262 11.6863 12.6667 11.3327 12.6667H10.666C10.3124 12.6667 9.97326 12.5262 9.72321 12.2761C9.47316 12.0261 9.33268 11.687 9.33268 11.3333V9.33334C9.33268 8.97972 9.47316 8.64058 9.72321 8.39053C9.97326 8.14048 10.3124 8.00001 10.666 8.00001H12.666" stroke="url(#paint0_linear_467_2087)" stroke-width="1.33333" stroke-linecap="round" stroke-linejoin="round"/>
<defs>
<linearGradient id="paint0_linear_467_2087" x1="0.666016" y1="6.66667" x2="12.666" y2="6.66667" gradientUnits="userSpaceOnUse">
<stop stop-color="#56BEEC"/>
<stop offset="1" stop-color="#51ECBA"/>
</linearGradient>
</defs>
</svg>
