<svg width="15" height="15" viewBox="0 0 15 15" fill="none" xmlns="http://www.w3.org/2000/svg">
<path d="M13.9248 10.6134V12.6134C13.9255 12.7991 13.8875 12.9828 13.8131 13.153C13.7387 13.3231 13.6296 13.4758 13.4928 13.6013C13.356 13.7268 13.1945 13.8224 13.0186 13.8819C12.8427 13.9413 12.6563 13.9634 12.4714 13.9467C10.42 13.7238 8.44943 13.0228 6.71809 11.9001C5.10731 10.8765 3.74165 9.51084 2.71809 7.90006C1.59141 6.16086 0.890255 4.18072 0.671427 2.12005C0.654767 1.9357 0.676677 1.74989 0.73576 1.57447C0.794844 1.39905 0.889807 1.23785 1.0146 1.10114C1.1394 0.964423 1.2913 0.855194 1.46062 0.780402C1.62994 0.705611 1.81299 0.666895 1.99809 0.666721H3.99809C4.32163 0.663537 4.63529 0.778107 4.8806 0.989076C5.12591 1.20005 5.28614 1.49302 5.33143 1.81339C5.41584 2.45343 5.57239 3.08187 5.79809 3.68672C5.88779 3.92534 5.9072 4.18466 5.85403 4.43397C5.80086 4.68329 5.67734 4.91213 5.49809 5.09339L4.65143 5.94005C5.60046 7.60908 6.9824 8.99102 8.65143 9.94005L9.49809 9.09339C9.67935 8.91415 9.9082 8.79062 10.1575 8.73745C10.4068 8.68428 10.6661 8.70369 10.9048 8.79339C11.5096 9.01909 12.1381 9.17564 12.7781 9.26006C13.1019 9.30574 13.3977 9.46886 13.6091 9.71838C13.8205 9.96791 13.9329 10.2864 13.9248 10.6134Z" stroke="url(#paint0_linear_467_2120)" stroke-width="1.33333" stroke-linecap="round" stroke-linejoin="round"/>
<defs>
<linearGradient id="paint0_linear_467_2120" x1="0.666016" y1="7.30939" x2="13.9252" y2="7.30939" gradientUnits="userSpaceOnUse">
<stop stop-color="#56BEEC"/>
<stop offset="1" stop-color="#51ECBA"/>
</linearGradient>
</defs>
</svg>
