<svg width="24" height="24" viewBox="0 0 24 24" fill="none" xmlns="http://www.w3.org/2000/svg">
<path d="M2 14L2.00001 13.4999C2.00001 10.2 2.00002 8.55012 3.02514 7.525C4.05027 6.49988 5.70018 6.49988 9.00001 6.49988H15.0012C18.3006 6.49988 19.9502 6.49988 20.9753 7.5248C22.0004 8.54971 22.0007 10.1994 22.0012 13.4987L22.0013 13.999C22.0019 17.2994 22.0022 18.9496 20.977 19.9749C19.9518 21.0003 18.3016 21.0002 15.0012 21.0002L8.99985 21C5.70007 21 4.05019 20.9999 3.02509 19.9748C1.99999 18.9497 2 17.2998 2 14Z" stroke="#6B7280" stroke-width="1.5" stroke-linecap="round" stroke-linejoin="round"/>
<path d="M8.5 6.49988C8.5 5.09542 8.5 4.39318 8.83706 3.88874C8.98298 3.67036 9.17048 3.48286 9.38886 3.33694C9.89331 2.99988 10.5956 2.99988 12 2.99988C13.4045 2.99988 14.1067 2.99988 14.6112 3.33694C14.8296 3.48286 15.0171 3.67036 15.163 3.88874C15.5 4.39318 15.5 5.09542 15.5 6.49988" stroke="#6B7280" stroke-width="1.5" stroke-linecap="round" stroke-linejoin="round"/>
<path d="M7 6.49988V20.9999M17 6.49988V20.9999" stroke="#6B7280" stroke-width="1.5" stroke-linecap="round" stroke-linejoin="round"/>
</svg>
