<svg width="40" height="40" viewBox="0 0 40 40" fill="none" xmlns="http://www.w3.org/2000/svg">
<path d="M3.43816 19.42C3.29926 19.7942 3.29926 20.2058 3.43816 20.58C4.79099 23.8602 7.08735 26.6649 10.0361 28.6385C12.9849 30.6121 16.4532 31.6656 20.0015 31.6656C23.5498 31.6656 27.0181 30.6121 29.9669 28.6385C32.9156 26.6649 35.212 23.8602 36.5648 20.58C36.7037 20.2058 36.7037 19.7942 36.5648 19.42C35.212 16.1397 32.9156 13.3351 29.9669 11.3615C27.0181 9.38792 23.5498 8.33435 20.0015 8.33435C16.4532 8.33435 12.9849 9.38792 10.0361 11.3615C7.08735 13.3351 4.79099 16.1397 3.43816 19.42Z" stroke="white" stroke-width="3.33333" stroke-linecap="round" stroke-linejoin="round"/>
<path d="M20 25C22.7614 25 25 22.7614 25 20C25 17.2386 22.7614 15 20 15C17.2386 15 15 17.2386 15 20C15 22.7614 17.2386 25 20 25Z" stroke="white" stroke-width="3.33333" stroke-linecap="round" stroke-linejoin="round"/>
</svg>
