<svg width="40" height="40" viewBox="0 0 40 40" fill="none" xmlns="http://www.w3.org/2000/svg">
<path d="M19.2081 3.82499C19.2811 3.67742 19.3939 3.55321 19.5338 3.46636C19.6737 3.37952 19.8351 3.3335 19.9997 3.3335C20.1644 3.3335 20.3258 3.37952 20.4657 3.46636C20.6055 3.55321 20.7184 3.67742 20.7914 3.82499L24.6414 11.6233C24.895 12.1366 25.2694 12.5807 25.7325 12.9174C26.1955 13.2541 26.7333 13.4735 27.2997 13.5567L35.9097 14.8167C36.0729 14.8403 36.2262 14.9091 36.3522 15.0153C36.4783 15.1215 36.5721 15.2609 36.6231 15.4177C36.6741 15.5744 36.6802 15.7423 36.6407 15.9024C36.6012 16.0624 36.5178 16.2082 36.3997 16.3233L30.1731 22.3867C29.7624 22.7868 29.4552 23.2808 29.2778 23.826C29.1004 24.3713 29.0582 24.9515 29.1547 25.5167L30.6247 34.0833C30.6535 34.2464 30.6359 34.4143 30.5739 34.5678C30.5119 34.7213 30.408 34.8543 30.274 34.9516C30.14 35.049 29.9814 35.1067 29.8162 35.1181C29.651 35.1296 29.4859 35.0945 29.3397 35.0167L21.6431 30.97C21.1359 30.7037 20.5717 30.5646 19.9989 30.5646C19.4261 30.5646 18.8619 30.7037 18.3547 30.97L10.6597 35.0167C10.5136 35.094 10.3487 35.1288 10.1838 35.1171C10.0189 35.1054 9.86061 35.0476 9.7269 34.9503C9.5932 34.8531 9.48947 34.7203 9.4275 34.567C9.36554 34.4137 9.34784 34.2462 9.37641 34.0833L10.8447 25.5183C10.9417 24.9529 10.8997 24.3723 10.7223 23.8267C10.5449 23.2811 10.2374 22.7869 9.82641 22.3867L3.59974 16.325C3.48073 16.21 3.3964 16.064 3.35635 15.9034C3.3163 15.7429 3.32214 15.5743 3.37321 15.417C3.42428 15.2596 3.51852 15.1197 3.64521 15.0133C3.77189 14.9069 3.92592 14.8381 4.08974 14.815L12.6981 13.5567C13.2652 13.4742 13.8037 13.2551 14.2674 12.9183C14.731 12.5815 15.1059 12.1371 15.3597 11.6233L19.2081 3.82499Z" stroke="white" stroke-width="3.33333" stroke-linecap="round" stroke-linejoin="round"/>
</svg>
