<svg width="46" height="37" viewBox="0 0 46 37" fill="none" xmlns="http://www.w3.org/2000/svg">
<path d="M20.3933 12.1314C20.8087 19.3414 15.7313 29.5007 4.34 34.4171L1.75 29.9371C6.40967 27.3167 9.933 23.0537 11.7973 17.9204C5.06333 17.3744 3.09633 13.2234 3.09633 9.83775C3.09633 5.24808 6.61967 1.64308 10.969 1.75275C15.1107 1.64308 19.8753 4.81175 20.3933 12.1314ZM43.7267 12.1314C44.142 19.3414 39.067 29.5007 27.6733 34.4171L25.0833 29.9371C29.7453 27.3167 33.2663 23.0537 35.1307 17.9204C28.3967 17.3744 26.4297 13.2234 26.4297 9.83775C26.4297 5.24808 29.953 1.64308 34.3023 1.75275C38.444 1.64308 43.2087 4.81175 43.7267 12.1314Z" stroke="#E9F6EA" stroke-width="3.5" stroke-miterlimit="10" stroke-linecap="round" stroke-linejoin="round"/>
</svg>
