<svg width="28" height="28" viewBox="0 0 28 28" fill="none" xmlns="http://www.w3.org/2000/svg">
<path d="M25.13 17.5H19.8333C19.2145 17.5 18.621 17.7458 18.1834 18.1834C17.7458 18.621 17.5 19.2145 17.5 19.8333V25.13" stroke="white" stroke-width="2.33333" stroke-linecap="round" stroke-linejoin="round"/>
<path d="M8.16602 3.89661V5.83327C8.16602 6.76153 8.53476 7.65177 9.19114 8.30815C9.84752 8.96452 10.7378 9.33327 11.666 9.33327C12.2849 9.33327 12.8783 9.57911 13.3159 10.0167C13.7535 10.4543 13.9993 11.0478 13.9993 11.6666C13.9993 12.9499 15.0493 13.9999 16.3327 13.9999C16.9515 13.9999 17.545 13.7541 17.9826 13.3165C18.4202 12.8789 18.666 12.2854 18.666 11.6666C18.666 10.3833 19.716 9.33327 20.9993 9.33327H24.6977" stroke="white" stroke-width="2.33333" stroke-linecap="round" stroke-linejoin="round"/>
<path d="M12.8342 25.6084V21C12.8342 20.3812 12.5884 19.7877 12.1508 19.3501C11.7132 18.9125 11.1197 18.6667 10.5009 18.6667C9.88207 18.6667 9.28858 18.4209 8.851 17.9833C8.41341 17.5457 8.16758 16.9522 8.16758 16.3334V15.1667C8.16758 14.5479 7.92175 13.9544 7.48416 13.5168C7.04658 13.0792 6.45308 12.8334 5.83424 12.8334H2.39258" stroke="white" stroke-width="2.33333" stroke-linecap="round" stroke-linejoin="round"/>
<path d="M14.0007 25.6667C20.444 25.6667 25.6673 20.4434 25.6673 14C25.6673 7.55672 20.444 2.33337 14.0007 2.33337C7.55733 2.33337 2.33398 7.55672 2.33398 14C2.33398 20.4434 7.55733 25.6667 14.0007 25.6667Z" stroke="white" stroke-width="2.33333" stroke-linecap="round" stroke-linejoin="round"/>
</svg>
