<svg width="20" height="20" viewBox="0 0 20 20" fill="none" xmlns="http://www.w3.org/2000/svg">
<g clip-path="url(#clip0_805_683)">
<path d="M15.0007 3.33337H5.00065C4.08018 3.33337 3.33398 4.07957 3.33398 5.00004V15C3.33398 15.9205 4.08018 16.6667 5.00065 16.6667H15.0007C15.9211 16.6667 16.6673 15.9205 16.6673 15V5.00004C16.6673 4.07957 15.9211 3.33337 15.0007 3.33337Z" stroke="white" stroke-width="1.66667" stroke-linecap="round" stroke-linejoin="round"/>
<path d="M11.6667 7.5H8.33333C7.8731 7.5 7.5 7.8731 7.5 8.33333V11.6667C7.5 12.1269 7.8731 12.5 8.33333 12.5H11.6667C12.1269 12.5 12.5 12.1269 12.5 11.6667V8.33333C12.5 7.8731 12.1269 7.5 11.6667 7.5Z" stroke="white" stroke-width="1.66667" stroke-linecap="round" stroke-linejoin="round"/>
<path d="M12.5 1.66663V3.33329" stroke="white" stroke-width="1.66667" stroke-linecap="round" stroke-linejoin="round"/>
<path d="M12.5 16.6666V18.3333" stroke="white" stroke-width="1.66667" stroke-linecap="round" stroke-linejoin="round"/>
<path d="M1.66602 12.5H3.33268" stroke="white" stroke-width="1.66667" stroke-linecap="round" stroke-linejoin="round"/>
<path d="M1.66602 7.5H3.33268" stroke="white" stroke-width="1.66667" stroke-linecap="round" stroke-linejoin="round"/>
<path d="M16.666 12.5H18.3327" stroke="white" stroke-width="1.66667" stroke-linecap="round" stroke-linejoin="round"/>
<path d="M16.666 7.5H18.3327" stroke="white" stroke-width="1.66667" stroke-linecap="round" stroke-linejoin="round"/>
<path d="M7.5 1.66663V3.33329" stroke="white" stroke-width="1.66667" stroke-linecap="round" stroke-linejoin="round"/>
<path d="M7.5 16.6666V18.3333" stroke="white" stroke-width="1.66667" stroke-linecap="round" stroke-linejoin="round"/>
</g>
<defs>
<clipPath id="clip0_805_683">
<rect width="20" height="20" fill="white"/>
</clipPath>
</defs>
</svg>
