<svg width="20" height="20" viewBox="0 0 20 20" fill="none" xmlns="http://www.w3.org/2000/svg">
<g clip-path="url(#clip0_805_703)">
<path d="M10.692 1.81668C10.4749 1.71764 10.239 1.66638 10.0004 1.66638C9.76172 1.66638 9.52585 1.71764 9.30871 1.81668L2.16704 5.06668C2.01917 5.13188 1.89344 5.23868 1.80518 5.37406C1.71692 5.50944 1.66992 5.66757 1.66992 5.82918C1.66992 5.99079 1.71692 6.14892 1.80518 6.2843C1.89344 6.41968 2.01917 6.52648 2.16704 6.59168L9.31704 9.85001C9.53418 9.94905 9.77005 10.0003 10.0087 10.0003C10.2474 10.0003 10.4832 9.94905 10.7004 9.85001L17.8504 6.60001C17.9983 6.53481 18.124 6.42801 18.2122 6.29263C18.3005 6.15725 18.3475 5.99913 18.3475 5.83751C18.3475 5.6759 18.3005 5.51777 18.2122 5.38239C18.124 5.24701 17.9983 5.14022 17.8504 5.07501L10.692 1.81668Z" stroke="white" stroke-width="1.66667" stroke-linecap="round" stroke-linejoin="round"/>
<path d="M1.66602 10C1.66562 10.1594 1.71095 10.3155 1.79662 10.45C1.88228 10.5844 2.0047 10.6914 2.14935 10.7583L9.31602 14.0167C9.53202 14.1145 9.7664 14.1651 10.0035 14.1651C10.2406 14.1651 10.475 14.1145 10.691 14.0167L17.841 10.7667C17.9885 10.7004 18.1136 10.5926 18.2009 10.4564C18.2882 10.3203 18.334 10.1617 18.3327 10" stroke="white" stroke-width="1.66667" stroke-linecap="round" stroke-linejoin="round"/>
<path d="M1.66602 14.1666C1.66562 14.326 1.71095 14.4822 1.79662 14.6166C1.88228 14.751 2.0047 14.858 2.14935 14.925L9.31602 18.1833C9.53202 18.2811 9.7664 18.3317 10.0035 18.3317C10.2406 18.3317 10.475 18.2811 10.691 18.1833L17.841 14.9333C17.9885 14.867 18.1136 14.7592 18.2009 14.6231C18.2882 14.4869 18.334 14.3283 18.3327 14.1666" stroke="white" stroke-width="1.66667" stroke-linecap="round" stroke-linejoin="round"/>
</g>
<defs>
<clipPath id="clip0_805_703">
<rect width="20" height="20" fill="white"/>
</clipPath>
</defs>
</svg>
