<svg width="22" height="22" viewBox="0 0 22 22" fill="none" xmlns="http://www.w3.org/2000/svg">
<path d="M15.5827 19.25V17.4167C15.5827 16.4442 15.1964 15.5116 14.5087 14.8239C13.8211 14.1363 12.8885 13.75 11.916 13.75H4.58268C3.61022 13.75 2.67759 14.1363 1.98996 14.8239C1.30232 15.5116 0.916016 16.4442 0.916016 17.4167V19.25" stroke="#1868A0" stroke-width="1.83333" stroke-linecap="round" stroke-linejoin="round"/>
<path d="M8.25065 10.0833C10.2757 10.0833 11.9173 8.44171 11.9173 6.41667C11.9173 4.39162 10.2757 2.75 8.25065 2.75C6.22561 2.75 4.58398 4.39162 4.58398 6.41667C4.58398 8.44171 6.22561 10.0833 8.25065 10.0833Z" stroke="#1868A0" stroke-width="1.83333" stroke-linecap="round" stroke-linejoin="round"/>
<path d="M21.084 19.25V17.4166C21.0834 16.6042 20.813 15.815 20.3152 15.1729C19.8175 14.5308 19.1206 14.0722 18.334 13.8691" stroke="#1868A0" stroke-width="1.83333" stroke-linecap="round" stroke-linejoin="round"/>
<path d="M14.666 2.86914C15.4547 3.07108 16.1538 3.52978 16.653 4.17293C17.1522 4.81607 17.4232 5.60707 17.4232 6.42122C17.4232 7.23538 17.1522 8.02638 16.653 8.66952C16.1538 9.31266 15.4547 9.77136 14.666 9.97331" stroke="#1868A0" stroke-width="1.83333" stroke-linecap="round" stroke-linejoin="round"/>
</svg>
