<svg width="29" height="29" viewBox="0 0 29 29" fill="none" xmlns="http://www.w3.org/2000/svg">
<path fill-rule="evenodd" clip-rule="evenodd" d="M13.5074 1.87791C16.777 0.841635 20.0913 8.21403e-05 22.3334 8.21426e-05C24.389 8.21388e-05 25.9808 1.64047 26.9991 3.67706C28.0473 5.77347 28.6667 8.59965 28.6667 11.6667C28.6667 14.7339 28.0473 17.56 26.9991 19.6564C25.9808 21.693 24.389 23.3334 22.3334 23.3334C20.0913 23.3334 16.777 22.4919 13.5074 21.4556C11.3985 20.7872 9.25269 20.0191 7.33343 19.2941C7.32595 21.8038 8.67685 24.1456 10.8913 25.3646L13.4823 26.7908C13.9661 27.0571 14.1424 27.6653 13.8761 28.1491C13.6098 28.6329 13.0017 28.8092 12.5178 28.5429L9.92682 27.1166C6.83981 25.4174 5.06217 22.0416 5.36721 18.5369C5.00432 18.3945 4.65567 18.2564 4.32372 18.1237C1.67524 17.0654 5.14204e-05 14.4903 5.14223e-05 11.6667C5.14229e-05 8.84315 1.67524 6.26807 4.32372 5.20977C6.79696 4.22149 10.1976 2.92694 13.5074 1.87791ZM14.1117 3.78444C15.5768 3.32008 16.9938 2.91491 18.2823 2.60853C18.0588 2.94644 17.8537 3.30515 17.6677 3.67706C16.6195 5.77347 16.0001 8.59965 16.0001 11.6667C16.0001 14.7339 16.6195 17.56 17.6677 19.6564C17.8537 20.0284 18.0588 20.3871 18.2823 20.725C16.9938 20.4186 15.5768 20.0134 14.1117 19.5491C10.868 18.521 7.51804 17.2464 5.06585 16.2665C3.20332 15.5223 2.00005 13.701 2.00005 11.6667C2.00005 9.63253 3.20332 7.81123 5.06585 7.06698C7.51804 6.08711 10.868 4.81251 14.1117 3.78444ZM19.4566 18.762C20.3686 20.586 21.4435 21.3334 22.3334 21.3334C23.2233 21.3334 24.2982 20.586 25.2102 18.762C26.0923 16.9978 26.6667 14.4907 26.6667 11.6667C26.6667 8.84281 26.0923 6.33566 25.2102 4.57149C24.2982 2.74751 23.2233 2.00008 22.3334 2.00008C21.4435 2.00008 20.3686 2.74751 19.4566 4.57149C18.5745 6.33566 18.0001 8.84281 18.0001 11.6667C18.0001 14.4907 18.5745 16.9978 19.4566 18.762Z" fill="#1A1A1A"/>
</svg>
