<svg width="26" height="26" viewBox="0 0 26 26" fill="none" xmlns="http://www.w3.org/2000/svg">
<path fill-rule="evenodd" clip-rule="evenodd" d="M22.3266 3.32961C21.297 2.29993 20.445 1.44792 19.6835 0.883941C18.8814 0.289916 18.0319 -0.0982879 17.0234 0.0218084C15.69 0.180597 14.6808 1.06573 13.9524 1.9169C13.3963 2.56664 12.9 3.32802 12.5056 3.93296C12.4052 4.08701 12.3114 4.23096 12.2249 4.36029C10.5988 5.95987 9.08521 6.49224 7.46489 6.65072L7.4139 6.65571C6.49546 6.74552 5.73402 6.81998 5.13968 6.93663C4.53503 7.0553 3.94278 7.24431 3.47498 7.67307C3.02752 8.0832 2.78889 8.59339 2.62271 9.13915C2.4664 9.65248 2.34663 10.2976 2.20699 11.0498L0.335653 21.1277C0.170118 22.0188 0.0258058 22.7956 0.00320568 23.4161C-0.0208375 24.0762 0.0805784 24.7934 0.643543 25.3564C1.20652 25.9194 1.92373 26.0208 2.5838 25.9968C3.20422 25.9742 3.98103 25.8298 4.87205 25.6643L14.9495 23.7929C15.7016 23.6532 16.3467 23.5335 16.86 23.3772C17.4057 23.211 17.9158 22.9724 18.3259 22.525C18.7546 22.0572 18.9437 21.465 19.0624 20.8603C19.1792 20.2659 19.2537 19.5044 19.3437 18.5858L19.3487 18.5349C19.5075 16.9137 20.0406 15.4003 21.6426 13.7728C21.7711 13.6869 21.914 13.5938 22.0668 13.4942C22.6718 13.0998 23.4332 12.6035 24.0829 12.0474C24.9341 11.3189 25.8192 10.3098 25.978 8.9764C26.0981 7.96791 25.7099 7.11843 25.1159 6.31632C24.5519 5.5548 23.6999 4.70285 22.6702 3.67325L22.3266 3.32961ZM21.1298 11.7162C21.6914 11.3496 22.2625 10.9729 22.7824 10.528C23.5169 9.89936 23.9238 9.31237 23.992 8.7399C24.0269 8.44741 23.9536 8.10751 23.5086 7.50661C23.0438 6.879 22.3 6.1315 21.1995 5.03096L20.9688 4.80029C19.8683 3.69975 19.1208 2.95597 18.4932 2.49118C17.8923 2.04616 17.5524 1.97295 17.2599 2.00778C16.6874 2.07595 16.1004 2.48289 15.4718 3.21736C15.027 3.73714 14.6503 4.30812 14.2838 4.86967L21.1298 11.7162ZM12.9725 6.38681C11.2166 7.88279 9.4724 8.46392 7.65957 8.64122C6.67714 8.73731 6.01292 8.8034 5.52487 8.89918C5.03615 8.9951 4.88449 9.09416 4.82634 9.14747C4.74785 9.21941 4.64943 9.34915 4.53597 9.72174C4.41633 10.1146 4.31582 10.6478 4.16346 11.4684L2.31573 21.4191C2.24124 21.8203 2.17817 22.1623 2.12844 22.4575L8.36899 16.2169C8.04077 15.6887 7.83104 15.1024 7.73222 14.4937C7.64372 13.9486 8.0139 13.4349 8.55905 13.3464C9.1042 13.2579 9.61787 13.6281 9.70638 14.1732C9.79718 14.7326 10.0345 15.2169 10.4089 15.5913C10.7832 15.9657 11.2676 16.203 11.8269 16.2938C12.3721 16.3823 12.7422 16.896 12.6537 17.4411C12.5652 17.9862 12.0516 18.3564 11.5064 18.2679C10.8977 18.1691 10.3115 17.9594 9.7832 17.6312L3.54295 23.8714C3.83797 23.8217 4.17977 23.7587 4.58062 23.6842L14.5309 21.8364C15.3514 21.684 15.8845 21.5835 16.2774 21.4639C16.6499 21.3505 16.7796 21.252 16.8516 21.1736C16.9048 21.1155 17.0039 20.9638 17.0999 20.4749C17.1958 19.9868 17.262 19.3225 17.3582 18.3399C17.5358 16.5269 18.1173 14.7836 19.6132 13.0281L12.9725 6.38681Z" fill="black"/>
</svg>
