<svg width="29" height="27" viewBox="0 0 29 27" fill="none" xmlns="http://www.w3.org/2000/svg">
<path fill-rule="evenodd" clip-rule="evenodd" d="M14.3333 7.74805C11.2037 7.74805 8.66667 10.2851 8.66667 13.4147C8.66667 16.5443 11.2037 19.0814 14.3333 19.0814C17.4629 19.0814 20 16.5443 20 13.4147C20 10.2851 17.4629 7.74805 14.3333 7.74805ZM10.6667 13.4147C10.6667 11.3897 12.3083 9.74805 14.3333 9.74805C16.3584 9.74805 18 11.3897 18 13.4147C18 15.4398 16.3584 17.0814 14.3333 17.0814C12.3083 17.0814 10.6667 15.4398 10.6667 13.4147Z" fill="#1A1A1A"/>
<path fill-rule="evenodd" clip-rule="evenodd" d="M9.9361 0.0129315C9.55691 -0.0381532 9.23722 0.0722049 9.01959 0.167753C8.81952 0.25559 8.59381 0.383811 8.37484 0.508201L6.00862 1.85167C5.78506 1.97853 5.55602 2.10851 5.37596 2.23667C5.18154 2.37504 4.91884 2.59531 4.76806 2.95176C4.60345 3.34091 4.65655 3.73311 4.69566 3.95997C4.73797 4.20545 4.81619 4.5066 4.9002 4.83003L4.90977 4.86686C5.43809 6.90159 4.14754 9.09045 2.05837 9.65376L2.02157 9.66368C1.70549 9.74887 1.40932 9.8287 1.17769 9.91271C0.960989 9.99132 0.59883 10.1389 0.343627 10.472C0.109094 10.7781 0.0469254 11.1136 0.0224585 11.3511C-0.000110557 11.5701 -5.15884e-05 11.8322 5.79096e-06 12.0871V14.742C-5.15884e-05 14.9969 -0.000110557 15.2589 0.0224568 15.478C0.0469215 15.7154 0.109085 16.0509 0.343601 16.357C0.59879 16.6902 0.960946 16.8377 1.17763 16.9163C1.40926 17.0004 1.70542 17.0802 2.0215 17.1654L2.05832 17.1753C4.1467 17.7386 5.43641 19.927 4.90776 21.962L4.8982 21.9988C4.81416 22.3222 4.73589 22.6234 4.69356 22.8688C4.65442 23.0957 4.60129 23.4879 4.76588 23.8771C4.91666 24.2336 5.17937 24.4539 5.3738 24.5923C5.5539 24.7204 5.78299 24.8504 6.00657 24.9773L8.37269 26.3207C8.59165 26.4451 8.81746 26.5734 9.01753 26.6612C9.23519 26.7568 9.5549 26.8671 9.93412 26.816C10.3464 26.7605 10.6519 26.5237 10.8276 26.3759C11.0142 26.219 11.2286 26.005 11.4565 25.7775L11.4833 25.7508C13.0397 24.1977 15.6292 24.1976 17.1855 25.7506L17.2124 25.7775C17.4403 26.0049 17.6546 26.2189 17.8412 26.3758C18.0169 26.5236 18.3225 26.7603 18.7347 26.8159C19.1139 26.867 19.4336 26.7567 19.6513 26.6611C19.8514 26.5733 20.0771 26.445 20.296 26.3206L22.6623 24.9771C22.8859 24.8503 23.115 24.7203 23.295 24.5921C23.4895 24.4537 23.7522 24.2334 23.903 23.8769C24.0676 23.4877 24.0144 23.0955 23.9752 22.8686C23.9329 22.6231 23.8546 22.3221 23.7706 21.9988L23.7609 21.9618C23.232 19.9266 24.5208 17.7385 26.6084 17.1754L26.6452 17.1654C26.9613 17.0802 27.2575 17.0003 27.4891 16.9163C27.7058 16.8377 28.0679 16.6901 28.3231 16.357C28.5576 16.0509 28.6198 15.7154 28.6442 15.4779C28.6668 15.2589 28.6667 14.9969 28.6667 14.742V12.0871C28.6667 11.8322 28.6668 11.5702 28.6442 11.3511C28.6198 11.1137 28.5576 10.7782 28.3231 10.472C28.0679 10.1389 27.7057 9.99136 27.4891 9.91275C27.2574 9.82872 26.9612 9.74888 26.6452 9.66366L26.6084 9.65375C24.52 9.09054 23.2303 6.90206 23.7589 4.86708L23.7685 4.8303C23.8525 4.5069 23.9308 4.20573 23.9731 3.96025C24.0123 3.73337 24.0654 3.34117 23.9008 2.952C23.75 2.59551 23.4873 2.37521 23.2929 2.23682C23.1128 2.10866 22.8838 1.97867 22.6602 1.8518L20.294 0.508346C20.075 0.383952 19.8493 0.255724 19.6492 0.167883C19.4316 0.0723356 19.1119 -0.0380228 18.7327 0.0130593C18.3205 0.068591 18.0149 0.305284 17.8392 0.453065C17.6526 0.609976 17.4383 0.823878 17.2103 1.05134L17.1834 1.07817C15.6281 2.62976 13.0407 2.62972 11.4854 1.07806L11.4585 1.05124C11.2306 0.823774 11.0162 0.609863 10.8296 0.452945C10.6539 0.305161 10.3483 0.0684659 9.9361 0.0129315ZM9.32913 2.26627C9.45569 2.19441 9.55511 2.13801 9.64139 2.09121L9.65474 2.08399C9.75543 2.17789 9.88645 2.30798 10.0729 2.49395C12.4088 4.82438 16.2599 4.82449 18.5959 2.49408C18.7823 2.30811 18.9134 2.17802 19.0141 2.08412L19.0274 2.09134C19.1137 2.13814 19.2131 2.19454 19.3397 2.2664L21.6393 3.57204C21.7682 3.64523 21.8697 3.70291 21.9559 3.75409L21.9733 3.76442C21.9418 3.90592 21.8932 4.09461 21.8232 4.36421C21.0095 7.49628 22.975 10.7453 26.0876 11.5848C26.3477 11.6549 26.5299 11.7045 26.6644 11.7457L26.6647 11.7632C26.6666 11.8626 26.6667 11.9783 26.6667 12.1255V14.7036C26.6667 14.8508 26.6666 14.9665 26.6647 15.0659L26.6644 15.0833C26.5299 15.1246 26.3477 15.1742 26.0876 15.2444C22.975 16.084 21.0113 19.3332 21.8252 22.4649C21.8953 22.7344 21.9439 22.9231 21.9754 23.0645L21.9581 23.0749C21.8718 23.126 21.7703 23.1837 21.6414 23.2569L19.3418 24.5626C19.2152 24.6344 19.1158 24.6908 19.0295 24.7376L19.0162 24.7448C18.9155 24.6509 18.7845 24.5209 18.5982 24.3349C16.2611 22.0028 12.4076 22.003 10.0706 24.335C9.88426 24.521 9.75329 24.6511 9.65263 24.745L9.6393 24.7378C9.55301 24.691 9.45358 24.6346 9.32702 24.5627L7.02742 23.257C6.89851 23.1839 6.797 23.1262 6.71076 23.075L6.69343 23.0647C6.72491 22.9232 6.77348 22.7345 6.84351 22.4649C7.65717 19.3328 5.69171 16.0838 2.57909 15.2443C2.31899 15.1742 2.13683 15.1246 2.00233 15.0833L2.00197 15.0659C2.00005 14.9665 2.00001 14.8508 2.00001 14.7036V12.1255C2.00001 11.9783 2.00005 11.8625 2.00197 11.7632L2.00233 11.7457C2.13682 11.7045 2.31897 11.6549 2.57904 11.5848C5.69174 10.7455 7.65893 7.49669 6.84558 4.36423C6.77556 4.09456 6.72701 3.90582 6.69554 3.76429L6.71289 3.75396C6.79912 3.70278 6.90063 3.6451 7.02953 3.57191L9.32913 2.26627Z" fill="#1A1A1A"/>
</svg>
