<svg width="29" height="29" viewBox="0 0 29 29" fill="none" xmlns="http://www.w3.org/2000/svg">
<path d="M11.6662 13.3334C11.114 13.3334 10.6662 13.7811 10.6662 14.3334C10.6662 14.8857 11.114 15.3334 11.6662 15.3334L16.9996 15.3334C17.5519 15.3334 17.9996 14.8857 17.9996 14.3334C17.9996 13.7811 17.5519 13.3334 16.9996 13.3334L11.6662 13.3334Z" fill="#1A1A1A"/>
<path fill-rule="evenodd" clip-rule="evenodd" d="M19.0553 3.75916e-05L9.61102 3.76397e-05C8.36558 1.86619e-05 7.35059 3.31484e-06 6.52411 0.0898741C5.66108 0.18372 4.91162 0.382933 4.22634 0.839787C3.54106 1.29664 3.06891 1.91183 2.65035 2.67238C2.24951 3.40072 1.85915 4.33763 1.38015 5.48729L0.0887146 8.58674C0.0354845 8.70386 0.00418062 8.83306 4.62609e-05 8.9691C-0.000265272 8.97923 -0.000422048 8.98934 -0.000422048 8.99945L-0.000422542 16.3163C-0.000444121 18.9437 -0.000460882 21.0213 0.226117 22.6463C0.459483 24.3201 0.950186 25.6609 2.04111 26.7129C3.12693 27.7599 4.50238 28.2264 6.22051 28.4492C7.89848 28.6667 10.0467 28.6667 12.778 28.6667L15.8878 28.6667C18.6191 28.6667 20.7673 28.6667 22.4453 28.4492C24.1634 28.2264 25.5389 27.7599 26.6247 26.7129C27.7156 25.6609 28.2063 24.3201 28.4397 22.6463C28.6663 21.0213 28.6663 18.9437 28.6662 16.3163L28.6662 9.03186C28.6702 8.91027 28.6519 8.78624 28.6089 8.66557C28.6023 8.64682 28.5951 8.62832 28.5874 8.6101L27.2862 5.4872C26.8072 4.33764 26.4168 3.40068 26.016 2.67238C25.5974 1.91183 25.1253 1.29664 24.44 0.839788C23.7547 0.382933 23.0053 0.183719 22.1422 0.0898732C21.3158 2.40939e-06 20.3008 1.86145e-05 19.0553 3.75916e-05ZM9.66651 2.00004L13.3329 2.00004L13.3329 8.00004L2.49984 8.00004L3.20497 6.30773C3.71048 5.09449 4.06023 4.25866 4.40253 3.63668C4.73304 3.03612 5.01332 2.71883 5.33574 2.50389C5.65815 2.28894 6.05883 2.15226 6.74032 2.07815C7.44611 2.00141 8.35216 2.00004 9.66651 2.00004ZM15.3329 2.00004L15.3329 8.00004L26.1665 8.00004L25.4614 6.30773C24.9559 5.09449 24.6061 4.25866 24.2638 3.63668C23.9333 3.03612 23.653 2.71883 23.3306 2.50389C23.0082 2.28894 22.6075 2.15226 21.926 2.07815C21.2202 2.00141 20.3142 2.00004 18.9998 2.00004L15.3329 2.00004ZM1.99958 10L26.6662 10L26.6662 16.2381C26.6662 18.9612 26.664 20.8992 26.4589 22.3702C26.2583 23.8086 25.8812 24.6515 25.2364 25.2732C24.5866 25.8998 23.6975 26.2701 22.1882 26.4658C20.6537 26.6647 18.6352 26.6667 15.8144 26.6667L12.8514 26.6667C10.0306 26.6667 8.01209 26.6647 6.47765 26.4658C4.96835 26.2701 4.07921 25.8998 3.42938 25.2732C2.78464 24.6515 2.40751 23.8086 2.20696 22.3702C2.00186 20.8992 1.99958 18.9612 1.99958 16.2381L1.99958 10Z" fill="#1A1A1A"/>
</svg>
